<svg xmlns="http://www.w3.org/2000/svg" fill="currentColor" class="vi" viewBox="0 0 16 16"><path d="M6.75 6.5a.75.75 0 0 0-.75.75v5a.75.75 0 0 0 1.5 0v-1.5h1.375a2.125 2.125 0 0 0 0-4.25zm2.125 2.75H7.5V8h1.375a.625.625 0 1 1 0 1.25"/><path d="M4.75 0A2.75 2.75 0 0 0 2 2.75v10.5A2.75 2.75 0 0 0 4.75 16h6.5A2.75 2.75 0 0 0 14 13.25v-9a.75.75 0 0 0-.22-.53l-3.5-3.5A.75.75 0 0 0 9.75 0zM3.5 2.75c0-.69.56-1.25 1.25-1.25H9v2.75c0 .414.336.75.75.75h2.75v8.25c0 .69-.56 1.25-1.25 1.25h-6.5c-.69 0-1.25-.56-1.25-1.25z"/></svg>