<svg xmlns="http://www.w3.org/2000/svg" fill="currentColor" class="vi" viewBox="0 0 16 16"><path d="M6.864 6.82a.75.75 0 0 0-1.228.86l1.449 2.07-1.45 2.07a.75.75 0 1 0 1.23.86L8 11.058l1.136 1.622a.75.75 0 1 0 1.228-.86L8.915 9.75l1.45-2.07a.75.75 0 1 0-1.23-.86L8 8.442z"/><path d="M4.75 0A2.75 2.75 0 0 0 2 2.75v10.5A2.75 2.75 0 0 0 4.75 16h6.5A2.75 2.75 0 0 0 14 13.25v-9a.75.75 0 0 0-.22-.53l-3.5-3.5A.75.75 0 0 0 9.75 0zM3.5 2.75c0-.69.56-1.25 1.25-1.25H9v2.75c0 .414.336.75.75.75h2.75v8.25c0 .69-.56 1.25-1.25 1.25h-6.5c-.69 0-1.25-.56-1.25-1.25z"/></svg>