<svg xmlns="http://www.w3.org/2000/svg" fill="currentColor" class="vi" viewBox="0 0 16 16"><path d="M6 3a.5.5 0 0 0 0 1h1a.5.5 0 0 0 0-1zm-.5 2.5A.5.5 0 0 1 6 5h1a.5.5 0 0 1 0 1H6a.5.5 0 0 1-.5-.5M6.25 7a.75.75 0 0 0-.732.587l-.375 1.687a1.39 1.39 0 1 0 2.714 0l-.375-1.687A.75.75 0 0 0 6.75 7z"/><path d="M2 2.75A2.75 2.75 0 0 1 4.75 0h5a.75.75 0 0 1 .53.22l3.5 3.5c.141.14.22.331.22.53v9A2.75 2.75 0 0 1 11.25 16h-6.5A2.75 2.75 0 0 1 2 13.25zM4.75 1.5c-.69 0-1.25.56-1.25 1.25v10.5c0 .69.56 1.25 1.25 1.25h6.5c.69 0 1.25-.56 1.25-1.25V5H9.75A.75.75 0 0 1 9 4.25V1.5H7.5A.5.5 0 0 1 7 2H6a.5.5 0 0 1-.5-.5z"/></svg>