<svg xmlns="http://www.w3.org/2000/svg" fill="currentColor" class="vi" viewBox="0 0 16 16"><path d="M2.75 3c-.69 0-1.25.56-1.25 1.25v6.118l.806-2.216A1.75 1.75 0 0 1 3.95 7h10.3a1.75 1.75 0 0 1 1.615 2.423l-1.41 3.385a2.75 2.75 0 0 1-2.538 1.692H2.75A2.75 2.75 0 0 1 0 11.75v-7.5A2.75 2.75 0 0 1 2.75 1.5h2.72c.95 0 1.777.647 2.008 1.568a.57.57 0 0 0 .553.432H11.5A2.5 2.5 0 0 1 14 6h-1.5a1 1 0 0 0-1-1H8.03a2.07 2.07 0 0 1-2.008-1.568A.57.57 0 0 0 5.47 3zm-.563 9.867c.17.085.36.133.563.133h9.167c.504 0 .96-.303 1.153-.77l1.41-3.384a.25.25 0 0 0-.23-.346H3.95a.25.25 0 0 0-.235.165z"/></svg>