<svg xmlns="http://www.w3.org/2000/svg" fill="currentColor" class="vi" viewBox="0 0 16 16"><path d="M2.75 3c-.69 0-1.25.56-1.25 1.25v7.5c0 .69.56 1.25 1.25 1.25h5.277a4.5 4.5 0 0 0 .44 1.5H2.75A2.75 2.75 0 0 1 0 11.75v-7.5A2.75 2.75 0 0 1 2.75 1.5h2.72c.95 0 1.777.647 2.008 1.568a.57.57 0 0 0 .553.432h5.219A2.75 2.75 0 0 1 16 6.25v3.421a4.5 4.5 0 0 0-1.5-1.203V6.25c0-.69-.56-1.25-1.25-1.25H8.03a2.07 2.07 0 0 1-2.008-1.568A.57.57 0 0 0 5.47 3z"/><path d="M16 12.5a3.5 3.5 0 1 1-7 0 3.5 3.5 0 0 1 7 0m-6 0a.5.5 0 0 0 .5.5h4a.5.5 0 1 0 0-1h-4a.5.5 0 0 0-.5.5"/></svg>